<svg width="77" height="32" viewBox="0 0 77 32" fill="none" xmlns="http://www.w3.org/2000/svg">
<g clip-path="url(#clip0_201_5)">
<rect width="77" height="32" fill="#CC7442"/>
<ellipse cx="72.5" cy="13.5" rx="22.5" ry="23.5" fill="#CA652C"/>
<circle cx="76" cy="13" r="20" fill="#DF982D"/>
<ellipse cx="75.6765" cy="12" rx="13.6765" ry="15" fill="#E3BA29"/>
<path d="M25.75 24.5V46.5C25.75 46.9142 26.0858 47.25 26.5 47.25C26.9142 47.25 27.25 46.9142 27.25 46.5V24.5C27.25 24.0858 26.9142 23.75 26.5 23.75C26.0858 23.75 25.75 24.0858 25.75 24.5Z" fill="#914128" stroke="black" stroke-width="0.5"/>
<path d="M20 24.9615C23.7903 22.0853 24.9101 20.3615 24.9091 17C26.5856 19.4145 27.5634 20.7582 30.3636 22.8846L32 23.9231L30.9091 25.6538L28.7273 24.6154L27.6364 26L24.9091 24.9615L23.2727 26V23.9231L20 24.9615Z" fill="#7B6B14" stroke="black" stroke-width="0.5"/>
<path d="M22 20.9615C24.5269 18.0853 25.2734 16.3615 25.2727 13C26.3904 15.4145 27.0422 16.7582 28.9091 18.8846L30 19.9231L29.2727 21.6538L27.8182 20.6154L27.0909 22L25.2727 20.9615L24.1818 22V19.9231L22 20.9615Z" fill="#7B6B14" stroke="black" stroke-width="0.5"/>
<path d="M37.75 28.5V50.5C37.75 50.9142 38.0858 51.25 38.5 51.25C38.9142 51.25 39.25 50.9142 39.25 50.5V28.5C39.25 28.0858 38.9142 27.75 38.5 27.75C38.0858 27.75 37.75 28.0858 37.75 28.5Z" fill="#914128" stroke="black" stroke-width="0.5"/>
<path d="M32 28.9615C35.7903 26.0853 36.9101 24.3615 36.9091 21C38.5856 23.4145 39.5634 24.7582 42.3636 26.8846L44 27.9231L42.9091 29.6538L40.7273 28.6154L39.6364 30L36.9091 28.9615L35.2727 30V27.9231L32 28.9615Z" fill="#7B6B14" stroke="black" stroke-width="0.5"/>
<path d="M34 24.9615C36.5269 22.0853 37.2734 20.3615 37.2727 17C38.3904 19.4145 39.0422 20.7582 40.9091 22.8846L42 23.9231L41.2727 25.6538L39.8182 24.6154L39.0909 26L37.2727 24.9615L36.1818 26V23.9231L34 24.9615Z" fill="#7B6B14" stroke="black" stroke-width="0.5"/>
</g>
<defs>
<clipPath id="clip0_201_5">
<rect width="77" height="32" fill="white"/>
</clipPath>
</defs>
</svg>
