<svg width="77" height="32" viewBox="0 0 77 32" fill="none" xmlns="http://www.w3.org/2000/svg">
<g clip-path="url(#clip0_201_20)">
<rect width="77" height="32" transform="matrix(-1 0 0 1 77 0)" fill="#7957C1"/>
<circle cx="25" cy="25" r="25" transform="matrix(-1 0 0 1 24 -14)" fill="#FFF5C6"/>
<ellipse cx="19.0676" cy="6.31661" rx="1.77842" ry="2.07483" transform="rotate(-8.56495 19.0676 6.31661)" fill="#D9D9D9"/>
<ellipse cx="15.4878" cy="19.9077" rx="3" ry="3.5" transform="rotate(-8.56495 15.4878 19.9077)" fill="#D9D9D9"/>
<ellipse cx="6.99575" cy="9.69392" rx="3.60365" ry="4.20426" transform="rotate(-8.56495 6.99575 9.69392)" fill="#D9D9D9"/>
<path d="M47.75 16.5V38.5C47.75 38.9142 48.0858 39.25 48.5 39.25C48.9142 39.25 49.25 38.9142 49.25 38.5V16.5C49.25 16.0858 48.9142 15.75 48.5 15.75C48.0858 15.75 47.75 16.0858 47.75 16.5Z" fill="#914128" stroke="black" stroke-width="0.5"/>
<path d="M42 16.9615C45.7903 14.0853 46.9101 12.3615 46.9091 9C48.5856 11.4145 49.5634 12.7582 52.3636 14.8846L54 15.9231L52.9091 17.6538L50.7273 16.6154L49.6364 18L46.9091 16.9615L45.2727 18V15.9231L42 16.9615Z" fill="#147B56" stroke="black" stroke-width="0.5"/>
<path d="M44 12.9615C46.5269 10.0853 47.2734 8.36146 47.2727 5C48.3904 7.41452 49.0422 8.75819 50.9091 10.8846L52 11.9231L51.2727 13.6538L49.8182 12.6154L49.0909 14L47.2727 12.9615L46.1818 14V11.9231L44 12.9615Z" fill="#147B56" stroke="black" stroke-width="0.5"/>
<path d="M50.75 32.2939V45.4998C50.75 45.914 51.0858 46.2498 51.5 46.2498C51.9142 46.2498 52.25 45.914 52.25 45.4998V32.2939C52.25 31.8797 51.9142 31.5439 51.5 31.5439C51.0858 31.5439 50.75 31.8797 50.75 32.2939Z" fill="#914128" stroke="black" stroke-width="0.5"/>
<path d="M45 32.3881C48.7903 30.6116 49.9101 29.5469 49.9091 27.4707C51.5856 28.962 52.5634 29.7919 55.3636 31.1053L57 31.7467L55.9091 32.8157L53.7273 32.1743L52.6364 33.0295L49.9091 32.3881L48.2727 33.0295V31.7467L45 32.3881Z" fill="#147B56" stroke="black" stroke-width="0.5"/>
<path d="M47 29.9174C49.5269 28.1409 50.2734 27.0762 50.2727 25C51.3904 26.4913 52.0422 27.3212 53.9091 28.6346L55 29.276L54.2727 30.345L52.8182 29.7036L52.0909 30.5588L50.2727 29.9174L49.1818 30.5588V29.276L47 29.9174Z" fill="#147B56" stroke="black" stroke-width="0.5"/>
<path d="M42.25 27.4707V37.3751C42.25 37.7203 42.5298 38.0001 42.875 38.0001C43.2202 38.0001 43.5 37.7203 43.5 37.3751V27.4707C43.5 27.1255 43.2202 26.8457 42.875 26.8457C42.5298 26.8457 42.25 27.1255 42.25 27.4707Z" fill="#914128" stroke="black" stroke-width="0.5"/>
<path d="M38 27.5411C40.8427 26.2087 41.6826 25.4102 41.6818 23.853C42.9392 24.9715 43.6725 25.594 45.7727 26.579L47 27.06L46.1818 27.8618L44.5455 27.3807L43.7273 28.0221L41.6818 27.5411L40.4545 28.0221V27.06L38 27.5411Z" fill="#147B56" stroke="black" stroke-width="0.5"/>
<path d="M39.5 25.6881C41.3951 24.3557 41.9551 23.5571 41.9545 22C42.7928 23.1185 43.2817 23.7409 44.6818 24.726L45.5 25.207L44.9545 26.0088L43.8636 25.5277L43.3182 26.1691L41.9545 25.6881L41.1364 26.1691V25.207L39.5 25.6881Z" fill="#147B56" stroke="black" stroke-width="0.5"/>
<path d="M38.75 32.2939V45.4998C38.75 45.914 39.0858 46.2498 39.5 46.2498C39.9142 46.2498 40.25 45.914 40.25 45.4998V32.2939C40.25 31.8797 39.9142 31.5439 39.5 31.5439C39.0858 31.5439 38.75 31.8797 38.75 32.2939Z" fill="#914128" stroke="black" stroke-width="0.5"/>
<path d="M33 32.3881C36.7903 30.6116 37.9101 29.5469 37.9091 27.4707C39.5856 28.962 40.5634 29.7919 43.3636 31.1053L45 31.7467L43.9091 32.8157L41.7273 32.1743L40.6364 33.0295L37.9091 32.3881L36.2727 33.0295V31.7467L33 32.3881Z" fill="#147B56" stroke="black" stroke-width="0.5"/>
<path d="M35 29.9174C37.5269 28.1409 38.2734 27.0762 38.2727 25C39.3904 26.4913 40.0422 27.3212 41.9091 28.6346L43 29.276L42.2727 30.345L40.8182 29.7036L40.0909 30.5588L38.2727 29.9174L37.1818 30.5588V29.276L35 29.9174Z" fill="#147B56" stroke="black" stroke-width="0.5"/>
<path d="M57.75 25.5586V43.4998C57.75 43.914 58.0858 44.2498 58.5 44.2498C58.9142 44.2498 59.25 43.914 59.25 43.4998V25.5586C59.25 25.1444 58.9142 24.8086 58.5 24.8086C58.0858 24.8086 57.75 25.1444 57.75 25.5586Z" fill="#914128" stroke="black" stroke-width="0.5"/>
<path d="M52 25.851C55.7903 23.4823 56.9101 22.0627 56.9091 19.2944C58.5856 21.2829 59.5634 22.3894 62.3636 24.1406L64 24.9958L62.9091 26.4211L60.7273 25.5659L59.6364 26.7062L56.9091 25.851L55.2727 26.7062V24.9958L52 25.851Z" fill="#147B56" stroke="black" stroke-width="0.5"/>
<path d="M54 22.5566C56.5269 20.1879 57.2734 18.7683 57.2727 16C58.3904 17.9884 59.0422 19.095 60.9091 20.8462L62 21.7014L61.2727 23.1267L59.8182 22.2715L59.0909 23.4118L57.2727 22.5566L56.1818 23.4118V21.7014L54 22.5566Z" fill="#147B56" stroke="black" stroke-width="0.5"/>
</g>
<defs>
<clipPath id="clip0_201_20">
<rect width="77" height="32" fill="white" transform="matrix(-1 0 0 1 77 0)"/>
</clipPath>
</defs>
</svg>
